<svg width="24" height="24" viewBox="0 0 24 24" fill="none" xmlns="http://www.w3.org/2000/svg">
<path d="M9.25191 17.7534C9.08397 17.5889 9 17.3797 9 17.1256C9 16.8714 9.08397 16.6622 9.25191 16.4978L12.8244 13L9.25191 9.50224C9.08397 9.33782 9 9.12855 9 8.87444C9 8.62033 9.08397 8.41106 9.25191 8.24664C9.41985 8.08221 9.63359 8 9.89313 8C10.1527 8 10.3664 8.08221 10.5344 8.24664L14.7481 12.3722C14.8397 12.4619 14.9047 12.559 14.9432 12.6637C14.9811 12.7683 15 12.8804 15 13C15 13.1196 14.9811 13.2317 14.9432 13.3363C14.9047 13.441 14.8397 13.5381 14.7481 13.6278L10.5344 17.7534C10.3664 17.9178 10.1527 18 9.89313 18C9.63359 18 9.41985 17.9178 9.25191 17.7534Z" fill="black"/>
</svg>
