<svg width="20" height="24" viewBox="0 0 20 24" fill="none" xmlns="http://www.w3.org/2000/svg">
<path d="M19.3967 18.4617L16.0597 15.1491C17.355 13.5328 17.9823 11.4813 17.8125 9.41633C17.6428 7.35139 16.689 5.43001 15.1472 4.04726C13.6053 2.66451 11.5927 1.92549 9.52317 1.98216C7.45361 2.03883 5.48439 2.88689 4.02044 4.35196C2.55649 5.81702 1.70908 7.78773 1.65245 9.85887C1.59582 11.93 2.33427 13.9441 3.71598 15.4871C5.09768 17.0301 7.0176 17.9847 9.08098 18.1545C11.1443 18.3244 13.1943 17.6966 14.8094 16.4003L18.1194 19.7129C18.2031 19.7972 18.3025 19.8642 18.4121 19.9099C18.5217 19.9556 18.6393 19.9791 18.7581 19.9791C18.8768 19.9791 18.9944 19.9556 19.104 19.9099C19.2136 19.8642 19.3131 19.7972 19.3967 19.7129C19.5588 19.545 19.6494 19.3207 19.6494 19.0873C19.6494 18.8538 19.5588 18.6295 19.3967 18.4617ZM9.7634 16.4003C8.51812 16.4003 7.3008 16.0308 6.26539 15.3384C5.22997 14.646 4.42297 13.6619 3.94642 12.5106C3.46987 11.3592 3.34518 10.0923 3.58812 8.87001C3.83107 7.64772 4.43073 6.52498 5.31128 5.64377C6.19182 4.76255 7.31371 4.16244 8.53506 3.91931C9.75642 3.67618 11.0224 3.80096 12.1729 4.27787C13.3234 4.75479 14.3067 5.56241 14.9985 6.59861C15.6904 7.63481 16.0597 8.85305 16.0597 10.0993C16.0597 11.7704 15.3963 13.3731 14.2155 14.5548C13.0347 15.7365 11.4333 16.4003 9.7634 16.4003Z" fill="white"/>
</svg>
